<svg id="Layer_1" data-name="Layer 1" xmlns="http://www.w3.org/2000/svg" viewBox="0 0 600 600"><defs><style>.cls-1{fill:#111;}</style></defs><title>accent</title><path class="cls-1" d="M126.65,136.07,108,168.45,106,171.78H312l-49.58,85.87-57-32.94h0L200.65,222l-4.93-2.85,0,0A107.14,107.14,0,0,0,57,256.67s0,0,0,0c-.92,1.43-1.82,2.88-2.67,4.36s-1.75,3.11-2.57,4.71a.41.41,0,0,1-.05.09A107.22,107.22,0,0,0,169,419.55h0a107.21,107.21,0,0,0,69-48.13l.14-.22,1.74-3,2-3.44a1,1,0,0,0,.09-.17l33.53-58.07,17.9-31,59.89-103.73,20.61-35.71ZM210.47,347.7v0l-1.5,2.59-1.49,2.58s0,0,0,0a71.41,71.41,0,1,1-29.63-102.8h0l4.9,2.83,4.71,2.72a0,0,0,0,1,0,0l57.07,32.95Z"/><path class="cls-1" d="M506.44,192.56a107.15,107.15,0,0,0-144.42,36s0,0,0,0l-3.88,6.71a.7.7,0,0,0-.09.17l-33.53,58.05-17.89,31L271,386.15l-24.29,42.07-20.61,35.71H473.45l18.68-32.36,1.93-3.35H288l14-24.21,35.61-61.68,56.67,32.72,0,0,5.09,2.94,5.07,2.93a1.28,1.28,0,0,0,.2.11,107.14,107.14,0,0,0,139.53-39.61h0c1-1.64,2-3.31,2.9-5l.13-.24a107.21,107.21,0,0,0-40.75-143.64ZM452.86,356.79A71.13,71.13,0,0,1,422.34,350L417.26,347l-4.93-2.85s0,0-.07,0l-56.82-32.79,34.12-59.09a.06.06,0,0,1,0-.06l3-5.11,0-.06a71.44,71.44,0,1,1,60.29,109.77Z"/></svg>